<?xml version="1.0" standalone="no"?>
<!DOCTYPE svg PUBLIC "-//W3C//DTD SVG 20010904//EN"
 "http://www.w3.org/TR/2001/REC-SVG-20010904/DTD/svg10.dtd">
<svg version="1.0" xmlns="http://www.w3.org/2000/svg"
 width="668.000000pt" height="690.000000pt" viewBox="0 0 668.000000 690.000000"
 preserveAspectRatio="xMidYMid meet">
<metadata>
Created by potrace 1.16, written by Peter Selinger 2001-2019
</metadata>
<g transform="translate(0.000000,690.000000) scale(0.100000,-0.100000)"
fill="#000000" stroke="none">
<path d="M3273 3869 c-28 -5 -68 -27 -113 -61 -59 -43 -77 -52 -105 -49 -34 2
-57 -11 -62 -36 -2 -7 4 -10 12 -7 8 4 15 2 15 -4 0 -14 -43 -23 -51 -11 -5 8
-9 8 -13 0 -4 -6 -11 -9 -15 -7 -4 3 -18 -4 -30 -15 -12 -11 -25 -17 -31 -14
-5 3 -12 0 -17 -8 -4 -7 -31 -32 -60 -56 -67 -56 -124 -161 -105 -192 8 -12
10 -33 6 -53 -5 -30 -2 -37 26 -58 18 -12 39 -40 47 -60 8 -20 25 -44 38 -52
25 -17 56 -117 38 -123 -7 -3 -3 -20 9 -45 15 -30 18 -54 15 -94 -4 -49 -2
-55 21 -70 l25 -16 -7 53 c-14 113 -18 188 -12 213 10 39 42 47 84 23 27 -16
36 -17 42 -7 8 13 40 7 40 -7 0 -5 -13 -14 -29 -20 -16 -6 -34 -20 -40 -32
-11 -19 -9 -23 18 -34 25 -11 29 -16 18 -27 -10 -11 -8 -12 8 -6 16 5 15 3 -5
-13 -27 -21 -26 -25 8 -36 19 -5 23 -3 20 11 -5 28 19 27 26 -2 4 -14 10 -24
13 -21 9 9 35 -22 28 -33 -3 -6 4 -10 18 -10 31 0 91 40 96 65 2 11 14 33 27
51 13 17 24 36 24 42 0 24 -48 41 -132 48 -49 4 -88 10 -88 14 0 5 9 6 20 3
11 -3 20 0 20 6 0 6 10 11 22 11 17 0 19 3 10 12 -18 18 -14 28 11 28 12 0 31
7 41 15 11 8 36 15 56 15 45 0 60 15 60 58 l0 33 48 -5 c55 -6 80 -14 102 -31
23 -18 140 -59 148 -51 3 4 0 11 -8 16 -8 6 -10 10 -4 10 6 0 17 -7 24 -16 8
-8 22 -20 33 -26 17 -9 19 -8 14 11 -4 17 -2 19 13 11 10 -5 21 -17 25 -27 11
-29 24 -233 18 -293 -3 -32 -2 -51 3 -47 5 5 9 12 9 15 2 18 36 70 50 76 21 8
10 55 -18 79 -17 15 -18 21 -9 40 6 12 16 35 22 50 9 25 8 28 -8 23 -16 -5
-17 0 -11 57 7 63 18 108 46 185 13 35 14 50 4 81 -6 21 -11 49 -11 63 0 54
-124 194 -213 241 -26 13 -56 36 -67 50 -34 44 -178 81 -257 66z"/>
<path d="M3525 3135 c-27 -8 -62 -14 -77 -15 -15 0 -29 -4 -33 -10 -3 -5 -11
-7 -18 -4 -13 5 -67 -41 -67 -57 0 -6 10 -24 23 -39 12 -16 30 -40 39 -53 13
-19 28 -25 70 -29 59 -6 78 -2 78 17 0 18 53 55 79 55 25 0 25 -1 5 38 -14 29
-14 33 0 48 21 21 20 41 -3 54 -24 13 -34 12 -96 -5z"/>
<path d="M3361 2698 c-32 -20 -34 -20 -63 -4 -28 17 -30 17 -49 0 -22 -19 -11
-34 26 -34 20 0 52 -37 41 -47 -3 -4 2 -12 12 -19 15 -12 14 -13 -12 -14 -16
0 -46 -5 -67 -12 -34 -10 -42 -9 -59 7 -31 28 -54 12 -47 -31 7 -44 11 -49 34
-39 35 15 131 14 144 -1 9 -11 8 -14 -9 -14 -23 0 -38 -30 -21 -41 6 -4 9 -12
5 -18 -4 -6 5 -13 21 -17 15 -3 34 -8 42 -10 7 -2 19 0 25 5 6 5 25 11 41 14
75 10 116 50 123 116 5 55 -10 81 -47 81 -27 0 -59 46 -42 63 16 16 15 43 -2
29 -8 -7 -18 -7 -27 -2 -21 13 -30 11 -69 -12z"/>
<path d="M3556 2427 c-28 -23 -51 -32 -83 -34 -24 -2 -69 -12 -101 -22 -31
-11 -72 -22 -89 -26 -35 -7 -42 -25 -20 -50 70 -83 77 -88 125 -87 26 0 50 -5
54 -11 13 -20 9 -47 -7 -47 -8 0 -15 -6 -15 -14 0 -9 12 -12 39 -11 40 2 63
-17 43 -37 -12 -12 -2 -58 13 -58 6 0 20 9 30 20 27 30 41 25 66 -25 12 -25
28 -45 36 -45 7 0 13 -2 13 -5 0 -11 -72 -133 -90 -153 -14 -15 -19 -29 -15
-45 5 -18 -5 -41 -39 -89 -24 -37 -59 -94 -76 -127 -18 -34 -33 -61 -35 -61
-2 0 -28 44 -58 98 -53 93 -95 147 -259 331 -69 78 -76 90 -87 149 -8 43 -9
68 -2 76 6 7 8 21 5 32 -3 11 8 48 25 84 17 36 31 71 31 78 0 29 -91 3 -114
-33 -21 -32 -20 -83 4 -201 19 -93 40 -144 59 -144 9 0 31 -45 31 -64 0 -8
-50 -30 -122 -55 -68 -24 -143 -56 -168 -72 -56 -35 -29 -39 36 -4 26 14 52
25 59 25 6 0 54 14 105 31 l94 31 29 -33 c23 -27 137 -245 137 -262 0 -4 -61
-11 -265 -27 -128 -11 -246 -30 -241 -39 5 -8 -141 -8 -149 0 -3 4 -20 0 -36
-8 -17 -8 -42 -13 -56 -10 -40 7 -55 -1 -42 -24 5 -11 14 -65 19 -122 5 -56
12 -123 16 -149 10 -68 -16 -65 -49 5 -21 44 -31 54 -64 64 -61 19 -220 28
-237 14 -8 -6 -20 -10 -27 -9 -13 3 -32 -69 -22 -84 2 -5 0 -8 -5 -8 -5 0 -8
-26 -7 -57 1 -32 -2 -66 -6 -75 -5 -9 -11 -34 -13 -55 -5 -48 -30 -187 -50
-278 -23 -103 -21 -135 7 -136 90 -5 286 18 450 51 81 17 84 16 90 -37 3 -27
3 -81 0 -121 -6 -67 -8 -74 -34 -88 -15 -7 -38 -14 -51 -15 -23 -1 -23 -1 2
-8 29 -8 39 -40 29 -96 -7 -37 -12 -131 -10 -180 1 -19 42 -75 55 -75 3 0 6
37 6 83 0 80 27 208 49 230 6 6 38 6 84 0 54 -6 92 -5 134 4 121 26 136 26
271 -1 73 -14 154 -26 182 -26 27 0 72 -9 99 -20 85 -33 481 -78 592 -67 34 4
64 9 66 11 8 8 33 129 30 140 -2 6 2 27 9 46 18 49 64 218 64 235 0 22 52 95
68 95 8 0 34 18 58 40 86 80 150 91 142 25 -3 -29 -1 -34 13 -30 9 3 75 6 148
7 l131 2 -6 36 c-4 19 -10 39 -15 44 -5 6 -9 29 -9 52 0 42 -11 85 -35 139
-12 26 -26 103 -51 278 -7 53 -7 53 -78 66 -45 8 -51 7 -71 -15 -12 -13 -32
-24 -43 -24 -12 0 -23 -8 -27 -20 -6 -18 -62 -66 -69 -59 -2 2 7 47 20 99 31
126 31 126 -8 128 -18 0 -51 3 -73 6 -22 2 -119 7 -215 10 -236 8 -309 15
-407 42 -15 4 30 157 56 194 15 20 28 26 67 28 61 3 187 -23 236 -49 45 -23
140 -39 122 -20 -6 7 -63 34 -125 61 -63 27 -105 50 -95 50 20 0 20 0 0 15
-21 16 -89 21 -79 5 3 -5 2 -10 -3 -10 -18 0 -21 28 -6 41 12 10 23 10 44 2
23 -9 32 -8 41 3 7 8 17 13 23 11 6 -2 22 4 35 15 18 14 27 15 37 7 20 -16 44
6 44 40 1 25 1 25 15 7 8 -11 21 -42 30 -71 l15 -52 67 5 c38 2 73 8 79 13 7
6 22 4 40 -6 16 -8 39 -15 51 -15 12 0 24 -4 28 -10 3 -5 12 -7 20 -4 8 4 18
-1 21 -10 3 -9 10 -16 14 -16 14 0 4 32 -13 45 -9 7 -17 17 -17 24 0 17 -92
73 -112 67 -10 -2 -18 -1 -18 4 0 11 -57 33 -69 26 -5 -4 -12 -2 -16 4 -3 5
-15 10 -26 10 -10 0 -18 5 -17 12 2 6 -34 28 -80 48 -46 21 -96 49 -111 64
-21 20 -30 23 -39 14 -9 -9 -12 -7 -12 10 0 12 -13 50 -28 85 -32 69 -89 127
-126 127 -22 0 -24 -4 -23 -47 2 -41 -1 -48 -18 -49 -11 -1 -32 -7 -47 -13
-26 -10 -28 -9 -28 14 0 13 5 27 10 30 6 3 10 17 10 31 0 13 4 24 9 24 5 0 11
17 14 38 2 20 9 52 15 70 14 42 0 42 -52 -1z m565 -1314 c11 -31 8 -88 -5 -88
-5 0 -16 14 -25 30 l-16 31 -25 -30 c-14 -17 -24 -37 -23 -46 2 -9 0 -10 -3
-2 -8 17 -24 15 -24 -3 0 -8 5 -15 10 -15 6 0 10 -13 10 -29 0 -17 5 -33 10
-36 6 -3 10 -1 10 4 0 6 7 11 15 11 8 0 15 -4 15 -10 0 -18 17 -11 28 13 11
20 11 19 9 -13 -2 -34 -3 -35 -39 -32 -33 3 -38 1 -38 -17 0 -16 6 -21 25 -21
14 0 25 -4 25 -10 0 -13 -46 -24 -61 -14 -8 4 -9 3 -5 -4 10 -17 42 -15 70 3
l23 15 -5 -71 c-3 -52 -9 -76 -23 -90 -12 -12 -19 -34 -20 -61 -1 -49 -2 -53
-13 -90 -5 -16 -13 -25 -21 -22 -6 3 -25 -5 -41 -18 -16 -13 -51 -31 -79 -41
-49 -16 -203 -39 -215 -32 -4 2 -147 6 -319 9 -172 3 -318 9 -325 14 -6 5 -45
12 -86 15 -42 4 -95 13 -119 22 -29 10 -60 13 -96 9 -47 -6 -53 -4 -58 15 -3
14 -13 21 -29 21 -12 0 -33 8 -45 18 -20 15 -23 27 -25 94 -1 43 -5 83 -9 89
-7 11 -10 -7 -25 -114 -3 -26 -8 -46 -11 -44 -2 3 -8 47 -14 98 -5 52 -12 102
-15 111 -4 13 3 18 30 24 24 4 36 12 36 23 0 17 10 19 125 21 125 4 416 22
572 36 162 15 202 14 348 -12 74 -13 346 -36 352 -30 1 1 5 61 7 132 6 147 15
164 87 164 34 0 41 -4 50 -27z"/>
<path d="M2567 1973 c-11 -10 -8 -36 8 -67 17 -32 14 -42 -9 -33 -8 3 -19 21
-24 39 -9 37 -41 49 -69 26 -12 -9 -15 -9 -9 -1 5 9 2 11 -8 7 -9 -3 -13 -11
-9 -17 4 -6 -1 -8 -13 -5 -15 4 -20 0 -21 -15 -2 -26 -24 -39 -41 -25 -11 10
-13 4 -10 -28 3 -38 4 -39 37 -36 19 1 39 6 45 11 6 5 39 7 74 6 34 -2 62 1
62 6 0 12 33 12 46 -1 14 -14 68 4 72 24 3 15 -1 17 -26 11 -26 -5 -30 -3 -35
21 -3 16 -1 38 3 50 5 12 6 25 3 28 -13 13 -42 5 -46 -11 -4 -17 -5 -17 -6 0
-1 17 -12 22 -24 10z"/>
<path d="M4721 262 c0 -34 -5 -70 -10 -80 -5 -9 -15 -32 -22 -51 -14 -38 -73
-113 -98 -123 -9 -4 24 -7 72 -7 l89 -1 -7 117 c-4 65 -11 138 -15 163 -8 45
-8 45 -9 -18z"/>
</g>
</svg>
